PathFileType	4	(X/Y/Z)	/Users/visionmauri/Downloads/pro-gait-dataset/4_0_1_f_1_Sports2D/4_0_1_f_1_Sports2D_px_person00.trc
DataRate	CameraRate	NumFrames	NumMarkers	Units	OrigDataRate	OrigDataStartFrame	OrigNumFrames
30.0	30.0	13	22	m	30.0	81	654
Frame#	Time	Hip			RHip			RKnee			RAnkle			RBigToe			RSmallToe			RHeel			LHip			LKnee			LAnkle			LBigToe			LSmallToe			LHeel			Neck			Head			Nose			RShoulder			RElbow			RWrist			LShoulder			LElbow			LWrist			
		X1	Y1	Z1	X2	Y2	Z2	X3	Y3	Z3	X4	Y4	Z4	X5	Y5	Z5	X6	Y6	Z6	X7	Y7	Z7	X8	Y8	Z8	X9	Y9	Z9	X10	Y10	Z10	X11	Y11	Z11	X12	Y12	Z12	X13	Y13	Z13	X14	Y14	Z14	X15	Y15	Z15	X16	Y16	Z16	X17	Y17	Z17	X18	Y18	Z18	X19	Y19	Z19	X20	Y20	Z20	X21	Y21	Z21	X22	Y22	Z22
81	2.7041347626339967	489.9600607764956	888.3770853471965	0.0	521.8291946436768	884.473566167328	0.0	532.0308372551109	1001.3368810692626	0.0	538.1343234183175	1130.5066043213935	0.0	539.7452539762264	1151.6334265597857	0.0	553.4362060616456	1155.953162249905	0.0	536.7891886118309	1147.9851340569396	0.0	459.7586850286982	888.3517958995884	0.0	462.8804307303348	1003.972818215709	0.0	465.4131199086618	1097.6920086003597	0.0	439.2774727474076	1086.1162520808402	0.0	436.57992567065514	1097.8463928738795	0.0	470.41570979137805	1116.1835014376907	0.0	485.1504982486541	730.0310257507343	0.0	479.99731913819056	670.4118777949857	0.0	469.3500830286591	703.5418002473915	0.0	535.0743542380067	745.9405301650767	0.0	584.717517954942	819.9788455204565	0.0	586.9237327750975	885.9429443293012	0.0	437.67396320525984	748.0874189734803	0.0	403.1911446563186	822.8582778212531	0.0	393.2489327763143	891.272013445923	0.0
82	2.7375191424196017	488.4832245879742	888.3598066025927	0.0	520.4608914843315	884.2377876045845	0.0	531.3325165359417	999.8119386919133	0.0	538.0505716326521	1127.2713995149566	0.0	540.7901469568228	1152.417434807879	0.0	554.1148483137733	1156.259505691524	0.0	537.8582156929039	1144.2379314690404	0.0	459.14683908698015	889.3386100009326	0.0	461.17464922597566	1003.1091221833858	0.0	465.1946646923664	1097.9303992645823	0.0	440.1734089455643	1091.6849180916147	0.0	437.23294418244467	1103.0573884089692	0.0	469.78479005423094	1116.30506531838	0.0	480.1701725402114	731.5268409752952	0.0	472.70600781903335	672.0822505190691	0.0	462.81098563425877	705.2273986697596	0.0	529.7576519816442	745.9412171871882	0.0	579.632490520595	818.6973157876008	0.0	584.3552286308427	882.8139322256313	0.0	433.524046869009	752.0266154074887	0.0	401.01768964771856	825.8024430399505	0.0	393.48528259012835	893.8901486128279	0.0
83	2.7709035222052067	486.8335914450031	888.0342339808042	0.0	518.6391912951632	883.4178116285019	0.0	531.0335053827787	996.600781341271	0.0	538.003671262687	1121.010811993771	0.0	542.4758962463716	1151.0147795266641	0.0	555.1039731326581	1154.081575758292	0.0	538.9500995868344	1138.6063257005064	0.0	458.4352429331134	889.3321837618677	0.0	459.6759778178297	1001.7095281585508	0.0	464.6374744315985	1098.2212971976874	0.0	441.01597356161426	1096.7305049817614	0.0	436.90567661783246	1107.2298835993636	0.0	469.5243075675275	1116.5678134865832	0.0	475.5661892490796	732.4657127943874	0.0	465.11317704192606	672.4292508858157	0.0	456.0171547026676	706.4612818728597	0.0	524.9787096895301	745.7955498351964	0.0	574.2786614172661	816.3894738650268	0.0	581.2426159989972	877.6757764130065	0.0	429.5514777918254	754.5311384951592	0.0	399.63511706775824	828.0536880609992	0.0	393.48116837714264	895.8821685928199	0.0
84	2.8042879019908113	485.0003948315758	886.5686379252074	0.0	516.4357545161862	881.6159503748045	0.0	530.8767310912266	992.9136206476047	0.0	537.320990050205	1115.0975760012989	0.0	543.753278070047	1147.9678310369768	0.0	555.0632578762621	1150.278008923869	0.0	538.6640721183426	1133.1313573295884	0.0	457.29587436195663	887.9036281379019	0.0	458.71674073701513	1000.333395818729	0.0	464.3401828534116	1098.572758457238	0.0	441.3073048619453	1099.5949676748667	0.0	436.32845420463	1109.3365360867708	0.0	469.47400748520846	1116.8117590548618	0.0	471.73585974168867	732.7059450564385	0.0	458.8178126585582	672.418064889708	0.0	450.57777878040076	706.9163252369021	0.0	521.227710725285	745.2249809214984	0.0	569.5193883845601	813.0677411418495	0.0	577.704806195777	872.6434742696807	0.0	426.2817834465394	755.0621137034533	0.0	399.03982655411755	829.902193406922	0.0	393.44753163445677	897.3764287094112	0.0
85	2.8376722817764164	483.18615161015936	883.8853541437625	0.0	514.08364444165	878.6497724785934	0.0	530.6062924885033	989.545506393672	0.0	535.1849461171504	1110.9957721168867	0.0	542.7940980873818	1142.7480442053034	0.0	552.6370134719048	1144.8771203563501	0.0	535.6561545268435	1128.5514687670204	0.0	455.43996538332334	885.2031693461977	0.0	458.12625821433215	999.2875834318826	0.0	464.28804630930347	1098.753761101917	0.0	441.4317318504362	1100.295651754428	0.0	436.17939620838973	1109.546535018188	0.0	469.49902005812817	1116.8190351700473	0.0	468.43949312404413	732.2467865843644	0.0	454.74147887486885	672.7161705551522	0.0	447.8576175297644	706.6728209024116	0.0	518.1255454983619	743.7405291017085	0.0	565.4501087185286	809.2318360721764	0.0	574.3089234070349	869.3279865139247	0.0	423.5352857997829	754.2827049790732	0.0	398.5379678774921	831.3584367164462	0.0	393.49616808217763	898.1197936344137	0.0
86	2.8710566615620214	481.4115131251797	881.2003670842298	0.0	511.6175388643907	875.2937438466516	0.0	529.9722750157738	985.443280340802	0.0	531.3742602916517	1105.7486177558485	0.0	538.9288493221852	1135.47155125875	0.0	547.9907906085372	1137.4964745324287	0.0	530.2009016212448	1123.2907057193834	0.0	453.38048530475004	882.2669245097511	0.0	457.7270296685788	998.4461811215788	0.0	464.18469894932684	1098.6170105941335	0.0	441.8870527052972	1100.385470041455	0.0	436.3823776945804	1108.9293406994047	0.0	469.41326925361375	1116.838081957066	0.0	465.07983721031496	730.9833991344516	0.0	452.2627368878765	672.6416775191827	0.0	447.1542437362459	705.6271615532629	0.0	514.5487388944531	741.4645640471906	0.0	561.246476522196	805.57160935678	0.0	571.4529599075396	867.6088124198843	0.0	420.89827583388865	752.9714993033205	0.0	397.28398511960836	831.8805330383373	0.0	393.7348636819566	897.3801830923913	0.0
87	2.904441041347626	479.70399780995916	879.4833702271491	0.0	509.1042900148091	872.6936514131388	0.0	528.7395493447186	980.4703692035555	0.0	526.9292241939363	1097.509536377206	0.0	533.0107958494478	1127.691490283342	0.0	542.733751383309	1129.224375610518	0.0	524.2053781276634	1116.5219468554872	0.0	452.08591884598184	880.1403428043714	0.0	457.4849006981581	997.3571823400905	0.0	463.9934766533764	1098.2026351324346	0.0	442.45419145064744	1100.825867632762	0.0	436.4163671293838	1108.3514999769664	0.0	469.15260035952286	1117.0539905316605	0.0	461.8160771001679	729.1530738902421	0.0	450.2183256356302	671.3809380870011	0.0	446.7358881798938	703.9729101070782	0.0	510.51001687993363	739.2584593096603	0.0	556.6438374315926	803.0201173708184	0.0	569.2947679882457	866.719733870599	0.0	418.4898797794551	751.4279775299312	0.0	395.38535796451976	831.0526492341364	0.0	394.34267322309256	894.5754133498779	0.0
88	2.937825421133231	478.29644379964435	878.0885099135628	0.0	506.94135546209014	870.9422082636897	0.0	527.0706643846681	976.4235256353077	0.0	523.2519022125682	1089.636931737638	0.0	526.5519278197127	1120.137017151755	0.0	538.0655517598366	1121.4752050497916	0.0	519.4977597148188	1109.5790165806172	0.0	451.57738475650973	878.5887594361908	0.0	457.34647208783986	995.6225670985541	0.0	463.8702539294063	1097.7283435065337	0.0	442.7712513939331	1101.329277650035	0.0	436.2408144335276	1107.9810907510075	0.0	468.9742429864806	1116.9763294165725	0.0	459.38448414053863	727.4111901945074	0.0	448.40425296652455	669.6872160546068	0.0	445.9762552973367	702.6853521625095	0.0	507.2515733446161	737.8436109632122	0.0	552.4259811457789	802.0279794820972	0.0	567.9548962013854	866.301165817797	0.0	416.85792515904296	749.7815837663395	0.0	393.661770707501	829.0259041014622	0.0	395.4253063576079	889.9173988171946	0.0
89	2.971209800918836	477.3719172550032	875.888369553093	0.0	505.5476104958087	869.1585833661908	0.0	525.238339797987	973.9993389783618	0.0	520.4488454934598	1085.378413256214	0.0	520.5710014138471	1112.423700882023	0.0	534.1032354629385	1114.2900891439926	0.0	516.4266904849421	1103.8926504553228	0.0	451.24714052597625	876.6564050308707	0.0	457.1566053959956	993.4521348981268	0.0	463.82399411002865	1097.4154919855273	0.0	442.8241508219495	1101.5136602394807	0.0	436.2676226617783	1107.8190201225887	0.0	469.0068558466568	1116.192065669077	0.0	458.0195164515365	726.2195252830662	0.0	447.3558804637216	668.6762513078328	0.0	445.30855610961333	702.2672309134086	0.0	505.3983896419372	737.0981715430598	0.0	549.1086180704464	801.9093840224849	0.0	567.3228597601079	866.2860033009881	0.0	416.1292537723443	748.2715916848329	0.0	392.50605911797754	826.6822686090964	0.0	396.9564918233323	884.8257148782508	0.0
90	3.0045941807044407	476.71172680377293	873.4413201308911	0.0	504.6224265767386	867.2878242533095	0.0	523.0054767401243	971.948731295506	0.0	517.8129125053451	1083.2533557446086	0.0	515.5096300444604	1105.4245569581442	0.0	530.8550162575418	1107.9285953278504	0.0	514.155303369498	1099.9528146708778	0.0	450.9705517083463	874.4201841048571	0.0	456.82944243276535	991.5350063833871	0.0	463.74315502142747	1097.2492706633743	0.0	442.68465399677297	1101.4451332860015	0.0	436.6306343791755	1107.889689018718	0.0	469.00672312308564	1115.186353690467	0.0	457.4087626247785	725.7988613671191	0.0	447.03063235245565	668.1396204225098	0.0	444.9038031895747	702.2656627279962	0.0	504.52275334032595	736.642648280355	0.0	546.6293578875586	801.8438741162541	0.0	566.8548572862162	866.345635317123	0.0	415.8456406043022	747.289979526908	0.0	391.9638099076821	825.052449325015	0.0	398.756104060995	881.3036844294521	0.0
91	3.0379785604900458	475.9221873205703	872.1634441062444	0.0	503.5366981375001	866.2414120727408	0.0	520.1818007133737	969.3688956587528	0.0	515.4705510609678	1080.3952422938225	0.0	511.78264261796187	1100.2687345308443	0.0	528.319493396252	1102.8324037086857	0.0	512.1323103382109	1097.2282906691057	0.0	450.8572957886335	872.9185819392629	0.0	456.4161623936599	990.2256646986339	0.0	463.61551905317754	1097.1251754728337	0.0	442.466225102199	1101.4297916002763	0.0	437.10913572951586	1108.0648968962782	0.0	468.9056166689016	1114.683210088194	0.0	457.15856372337987	726.3200627206219	0.0	446.869864858109	667.6958570817332	0.0	444.5755466958986	702.4937143643577	0.0	504.13738669213456	736.646887005669	0.0	544.9950074988699	801.7104180550391	0.0	566.0469964349618	866.1034235863341	0.0	415.69989379408247	747.1757592462825	0.0	392.2051430751663	824.380859798967	0.0	400.6278585111954	879.6752434866751	0.0
92	3.071362940275651	475.18923780679415	872.0039056538259	0.0	502.52541018340753	866.3867673801656	0.0	517.3729492965174	966.7772029925362	0.0	514.1170084600994	1076.0116186156965	0.0	509.48869166761483	1095.784680529656	0.0	526.0775282307231	1097.5373553952163	0.0	510.8229468691407	1093.9504001402904	0.0	450.8432987948335	872.6272438178378	0.0	455.9725298037736	989.4217427007165	0.0	463.5336278849037	1097.0286678855537	0.0	442.34950787370786	1101.5427439112684	0.0	437.4671984551242	1108.1533792549944	0.0	468.9007224634983	1114.8208225191827	0.0	456.94662454222276	727.3036113751189	0.0	446.83273761368093	667.934200599042	0.0	444.47516101903386	703.1515964857573	0.0	503.8945216540977	737.2720912412642	0.0	544.2187975412526	801.5779344488694	0.0	565.0733821710387	865.7137272218582	0.0	415.78119001433555	747.7819671173139	0.0	393.17816282636073	824.1194032649825	0.0	402.7743316851863	878.1619153672098	0.0
93	3.1047473200612554	474.8538065507973	872.0609465309481	0.0	502.0742890085437	867.2044407957139	0.0	515.3400107933857	964.6869967371034	0.0	513.7417864044936	1070.6026978544323	0.0	508.3900503362331	1089.7989883212304	0.0	524.0173559022915	1090.384376916928	0.0	510.5960481904706	1088.7638094169702	0.0	450.74559064574754	873.0483590671711	0.0	455.5810314134106	989.0629499570414	0.0	463.5461542312095	1097.0036088997065	0.0	442.3848067769687	1101.4768240348692	0.0	437.62762606480686	1108.1162246339325	0.0	469.000792059249	1115.240161254054	0.0	456.70636510945275	727.8512861755161	0.0	447.24115770187643	669.1939848542456	0.0	444.938648606563	703.8916633006824	0.0	503.40801030894875	738.060014034807	0.0	543.970849017354	801.3528228898388	0.0	564.4263312083327	865.5673524737921	0.0	416.1149527036525	748.4908692888616	0.0	394.46330290331576	823.6454422536422	0.0	405.68221454458524	875.8864794678639	0.0
